<svg width="1440" height="1024" viewBox="0 0 1440 1024" fill="none" xmlns="http://www.w3.org/2000/svg">
<rect width="1440" height="1024" fill="#E5E5E5"/>
<g id="Frame 1">
<g clip-path="url(#clip0)">
<rect width="1440" height="1024" fill="white"/>
<g id="Hamburger 1">
<g clip-path="url(#clip1)">
<path id="Vector" d="M1136.82 722.526C1237.79 721.335 1338.76 722.018 1439.73 724.575C1448.41 724.795 1457.43 725.078 1465.1 727.378C1472.77 729.678 1478.67 734.613 1476.57 739.353C1437.16 740.519 1397.7 740.879 1358.21 740.434C1349.61 744.647 1340.16 750.992 1345.45 756.674C1349.11 760.606 1358.14 761.776 1366.03 761.785C1380.33 761.802 1394.69 759.455 1408.78 760.832C1422.87 762.209 1436.93 769.62 1432.8 777.313C1429.67 783.155 1417.78 786.046 1406.95 786.563C1396.13 787.079 1385.05 786.005 1374.48 787.389C1364.43 788.703 1355.72 792.12 1346.31 794.504C1331.47 798.266 1315.02 799.428 1298.84 800.417C1174.56 808.009 1049.26 807.949 924.258 807.88C873.652 807.852 822.357 807.775 773.488 800.387C745.632 796.176 718.939 789.637 690.731 786.243C657.037 782.19 622.214 782.74 587.757 782.862C527.268 783.075 466.829 781.909 406.441 779.365C401.947 779.175 396.431 778.534 395.218 776.095C393.803 773.249 399.547 771.029 404.402 769.893C431.914 763.525 459.889 759.352 488.061 757.414C502.329 756.411 517.032 755.9 530.155 752.597C543.278 749.295 554.742 742.368 554.619 734.29C554.581 731.825 553.542 729.189 555.598 727.012C558.329 724.122 565.049 723.458 570.846 723.143C635.116 719.65 699.735 718.192 764.296 718.778C787.006 718.984 809.81 719.44 832.359 717.91C850.835 716.657 868.932 714.084 887.141 711.923C911.582 709.023 1017.95 694.001 1033.47 706.19C1045.08 715.315 1021.1 717.284 1052.26 721.007C1079.38 724.25 1109.3 722.85 1136.82 722.526Z" fill="#F2F2F2"/>
<path id="Vector_2" d="M743.718 680.85C743.718 680.85 706.273 754.945 738.141 754.945C770.01 754.945 1171.55 756.538 1182.71 735.824C1190.52 721.311 1186.21 669.646 1182.93 640.011C1182.3 634.251 1179.48 628.955 1175.05 625.21C1170.63 621.465 1164.94 619.557 1159.16 619.878C1072.31 624.671 747.884 642.435 749.295 640.218C752.084 635.836 750.092 637.031 750.092 637.031C750.092 637.031 737.344 677.664 743.718 680.85Z" fill="#3F3D56"/>
<path id="Vector_3" opacity="0.1" d="M1183.73 640.011C1183.09 634.251 1180.27 628.955 1175.85 625.21C1171.43 621.465 1165.74 619.557 1159.95 619.878C1073.11 624.671 748.681 642.435 750.092 640.218C752.88 635.836 750.889 637.031 750.889 637.031C750.889 637.031 748.043 646.102 745.713 656.008C746.043 655.975 746.29 656.286 745.215 658.179C745.119 658.606 745.025 659.033 744.932 659.461C757.926 660.744 1069.53 643.682 1154.38 638.999C1160.16 638.678 1165.85 640.586 1170.27 644.331C1174.7 648.076 1177.52 653.373 1178.15 659.132C1180.59 681.165 1183.6 715.372 1181.77 737.438C1182.47 737.055 1183.07 736.5 1183.5 735.824C1191.32 721.311 1187.01 669.646 1183.73 640.011Z" fill="black"/>
<path id="Vector_4" d="M788.35 569.809C784.199 568.537 778.945 566.894 779.419 564.215C779.67 562.792 781.575 561.681 782.955 560.488C785.615 558.188 786.332 554.948 783.475 552.726C780.618 550.505 773.736 550.208 771.215 552.559C769.918 553.768 769.996 555.285 769.327 556.651C767.238 560.912 758.788 562.783 751.609 564.438C744.43 566.094 736.398 569.174 737.073 573.582C737.809 578.391 748.884 582.657 744.428 586.758C742.812 588.245 739.413 589.075 738.689 590.776C738.181 591.972 739.203 593.189 740.195 594.283L747.247 602.052C750.053 605.143 752.944 608.507 752.004 611.948C750.142 618.768 735.002 621.378 723.001 620.611C718.607 620.331 713.442 619.946 710.422 621.793C708.095 623.216 708.099 625.433 708.872 627.33C710.863 632.213 717.232 636.442 725.383 638.293C716.248 640.096 712.66 647.693 718.967 651.879C715.358 653.121 711.455 653.233 707.78 652.2C704.661 655.072 706.495 659.013 710.451 661.525C714.408 664.038 720.013 665.451 725.441 666.794L720.362 671.543C724.037 674.414 731.975 673.402 737.328 671.587C742.681 669.773 748.49 667.337 754.487 668.286C760.112 669.176 764.366 672.928 770.094 672.286C774.532 671.788 776.644 668.936 778.027 666.474L783.905 656.008C792.273 657.317 801.071 651.583 797.711 647.011C807.074 648.017 816.291 641.936 813.217 636.781C818.203 640.627 821.714 645.095 823.432 649.78C824.2 651.874 824.667 654.088 826.758 655.862C828.124 656.878 829.707 657.565 831.384 657.868C833.06 658.172 834.783 658.083 836.419 657.61C834.712 660.921 833.329 664.783 836.838 667.593C840.347 670.402 850.472 669.605 850.025 666.163C855.376 668.462 861.372 670.623 868.059 670.795C874.746 670.966 882.065 668.421 882.673 664.61C892.097 667.718 901.956 669.305 911.88 669.311C912.724 666.761 918.619 665.936 923.026 666.56C927.434 667.183 931.522 668.68 936.062 668.683C940.603 668.686 945.485 665.953 943.161 663.723C952.722 665.723 962.536 666.219 972.249 665.191C981.412 664.219 990.095 661.907 999.374 661.408C1008.79 660.835 1018.21 662.323 1026.99 665.769C1030.03 667.045 1033.81 668.65 1037.15 667.65C1039.05 667.082 1039.97 665.857 1041.26 664.88C1046.8 660.675 1058.13 661.481 1066.87 663.135C1075.62 664.788 1085.79 666.778 1093.45 663.856C1096.34 662.754 1098.47 661.05 1101.54 660.125C1112.56 656.809 1125.74 665.304 1137.43 662.86C1141.24 662.064 1144.33 660.16 1148.36 659.925C1155.52 659.508 1160.24 664.356 1167.2 665.399C1174.41 666.481 1182.24 662.09 1180.48 657.945C1187.41 658.099 1194.33 657.138 1200.96 655.098L1197.68 649.202C1205.85 649.07 1211.85 643.218 1208.07 639.08C1216.26 637.521 1222.73 633.325 1224.41 628.487C1226.1 623.648 1222.92 618.356 1216.4 615.125C1212.55 613.218 1207.5 611.877 1205.3 609.252C1203.72 607.361 1203.95 605.161 1203.33 603.094C1201.98 598.57 1196.14 594.576 1188.59 593.019C1185.31 592.342 1181.72 592.085 1178.75 591.041C1175.78 589.996 1173.63 587.733 1175.35 585.998C1176.25 585.079 1178 584.538 1179.13 583.704C1183.71 580.322 1175.86 576.041 1169.15 574.142L1185.16 573.619L1188.6 558.032C1182.27 563.184 1165.84 562.1 1161.72 556.259C1166.86 557.947 1173.76 555.789 1176.27 552.719C1178.79 549.649 1178.17 546.078 1177.5 542.71C1177.44 541.873 1177.16 541.067 1176.69 540.371C1176.22 539.674 1175.58 539.11 1174.83 538.735C1173.26 537.988 1170.77 537.677 1170.25 536.548C1169.73 535.397 1171.76 534.379 1172.06 533.202C1172.63 530.942 1167.44 529.946 1163.93 528.853C1155.66 526.274 1151.65 519.028 1142.23 519.263C1132.89 519.497 1130.28 526.631 1130.27 531.978C1130.26 537.325 1127.1 544.475 1117.75 544.377C1114.01 544.338 1110.76 542.996 1107.78 541.71L1081 530.159C1077.46 528.513 1073.77 527.193 1070 526.216C1064.59 524.955 1058.63 524.806 1052.8 524.674L1015.33 523.822C1013.42 523.673 1011.5 523.838 1009.65 524.311C1007.68 524.969 1006.72 526.263 1005.54 527.376C1000.32 532.275 988.055 534.193 979.203 531.495C976.856 530.78 974.753 529.794 972.266 529.255C964.433 527.557 956.213 530.698 948.073 531.833C934.731 533.693 918.151 530.491 908.532 536.095C905.325 537.964 903.624 540.518 900.652 542.509C897.68 544.501 892.318 545.851 888.57 544.347C889.041 548.001 889.47 551.814 886.996 555.195C884.522 558.575 878.178 561.333 871.944 560.481C868.636 559.606 868.897 556.826 870.462 554.944C872.026 553.062 874.426 551.14 873.646 549.104C872.872 547.085 869.331 545.911 866.683 544.503C864.035 543.096 862.268 540.428 865.081 539.129C863.186 536.693 856.374 536.99 853.377 539.033C850.381 541.076 850.082 543.952 849.755 546.612C849.428 549.271 848.716 552.184 845.244 553.964C839.327 556.997 827.968 555.423 824.044 559.374C822.798 560.629 822.724 562.143 822.011 563.527C818.828 569.706 805.085 571.307 793.851 571.811C793.615 573.097 793.562 574.409 793.695 575.71C797.538 574.047 791.135 570.662 788.35 569.809Z" fill="#61AB43"/>
<path id="Vector_5" opacity="0.1" d="M1177.5 562.75C1178.17 566.119 1178.79 569.689 1176.27 572.759C1175.9 573.203 1175.48 573.602 1175.02 573.951C1178.4 573.84 1181.78 573.729 1185.16 573.619C1186.31 568.423 1187.46 563.227 1188.6 558.032C1185.98 560.166 1181.62 561.227 1177.12 561.326C1177.28 561.791 1177.41 562.267 1177.5 562.75V562.75Z" fill="black"/>
<path id="Vector_6" opacity="0.1" d="M1180.46 581.11C1180.06 579.003 1176.58 576.865 1172.69 575.337C1169.27 576.963 1165.37 577.305 1161.72 576.3C1164.56 580.328 1173.25 582.092 1180.46 581.11Z" fill="black"/>
<path id="Vector_7" opacity="0.1" d="M1185.43 592.468C1185.34 592.865 1185.25 593.262 1185.16 593.659C1179.83 593.834 1174.49 594.008 1169.15 594.183C1175.86 596.082 1183.71 600.362 1179.13 603.745C1178 604.579 1176.25 605.12 1175.35 606.038C1173.63 607.774 1175.78 610.037 1178.75 611.081C1181.72 612.126 1185.31 612.383 1188.59 613.059C1196.14 614.617 1201.98 618.611 1203.33 623.135C1203.95 625.202 1203.72 627.401 1205.3 629.292C1207.5 631.918 1212.55 633.259 1216.4 635.166C1216.77 635.349 1217.13 635.542 1217.48 635.738C1220.96 633.771 1223.46 631.233 1224.41 628.487C1226.1 623.648 1222.92 618.356 1216.4 615.125C1212.55 613.218 1207.5 611.878 1205.3 609.252C1203.72 607.361 1203.95 605.161 1203.33 603.094C1201.98 598.57 1196.14 594.576 1188.59 593.019C1187.55 592.806 1186.49 592.635 1185.43 592.468Z" fill="black"/>
<path id="Vector_8" opacity="0.1" d="M716.378 664.246C717.624 661.593 720.808 659.237 725.383 658.334C721.012 657.426 716.893 655.568 713.319 652.892C711.448 652.947 709.58 652.714 707.78 652.2C704.661 655.072 706.495 659.013 710.451 661.526C712.317 662.654 714.306 663.567 716.378 664.246V664.246Z" fill="black"/>
<path id="Vector_9" opacity="0.1" d="M744.618 586.562C746.898 585.708 749.234 585.013 751.609 584.479C758.787 582.823 767.238 580.952 769.327 576.691C769.996 575.325 769.918 573.809 771.215 572.599C773.736 570.248 780.618 570.545 783.475 572.767C786.332 574.988 785.615 578.229 782.955 580.529C781.575 581.722 779.67 582.832 779.419 584.256C778.945 586.934 784.199 588.577 788.35 589.849C790.303 590.478 792.133 591.443 793.755 592.7C793.79 592.416 793.824 592.133 793.852 591.851C805.085 591.347 818.828 589.747 822.011 583.568C822.724 582.183 822.798 580.669 824.044 579.414C827.968 575.464 839.327 577.037 845.244 574.004C848.716 572.225 849.428 569.312 849.755 566.652C850.082 563.993 850.381 561.116 853.378 559.074C856.374 557.031 863.186 556.734 865.081 559.17C862.269 560.469 864.035 563.136 866.683 564.544C869.331 565.951 872.872 567.126 873.646 569.145C874.426 571.18 872.026 573.103 870.462 574.985C868.897 576.867 868.636 579.647 871.945 580.521C878.178 581.374 884.522 578.615 886.996 575.235C889.47 571.855 889.041 568.042 888.57 564.388C892.318 565.891 897.681 564.541 900.652 562.55C903.624 560.559 905.325 558.004 908.532 556.136C918.151 550.532 934.731 553.734 948.074 551.874C956.213 550.739 964.433 547.598 972.266 549.296C974.753 549.835 976.856 550.821 979.203 551.536C988.056 554.234 1000.32 552.315 1005.54 547.417C1006.72 546.304 1007.68 545.009 1009.65 544.352C1011.5 543.878 1013.42 543.713 1015.33 543.863C1027.82 544.147 1040.31 544.431 1052.8 544.714C1058.63 544.847 1064.59 544.996 1070 546.257C1073.78 547.234 1077.46 548.553 1081 550.2C1089.92 554.05 1098.85 557.9 1107.78 561.751C1110.76 563.036 1114.01 564.379 1117.75 564.418C1127.1 564.515 1130.26 557.365 1130.27 552.018C1130.28 546.672 1132.89 539.538 1142.23 539.304C1151.65 539.068 1155.66 546.315 1163.93 548.893C1167.44 549.986 1172.63 550.982 1172.06 553.242C1171.79 554.291 1170.16 555.214 1170.17 556.217C1172.5 555.668 1174.62 554.453 1176.27 552.719C1178.79 549.649 1178.17 546.078 1177.5 542.71C1177.44 541.873 1177.16 541.067 1176.69 540.371C1176.22 539.674 1175.58 539.11 1174.83 538.735C1173.26 537.988 1170.77 537.677 1170.25 536.548C1169.73 535.397 1171.76 534.379 1172.06 533.202C1172.63 530.942 1167.44 529.946 1163.93 528.853C1155.66 526.274 1151.65 519.028 1142.23 519.263C1132.89 519.497 1130.28 526.631 1130.27 531.978C1130.26 537.325 1127.1 544.475 1117.75 544.377C1114.01 544.338 1110.76 542.996 1107.78 541.71C1098.85 537.86 1089.92 534.009 1081 530.159C1077.46 528.513 1073.78 527.193 1070 526.216C1064.59 524.955 1058.63 524.806 1052.8 524.674C1040.31 524.39 1027.82 524.106 1015.33 523.823C1013.42 523.673 1011.5 523.838 1009.65 524.311C1007.68 524.969 1006.72 526.263 1005.54 527.376C1000.32 532.275 988.056 534.193 979.203 531.495C976.856 530.78 974.753 529.794 972.266 529.255C964.433 527.557 956.213 530.698 948.074 531.833C934.731 533.693 918.151 530.491 908.532 536.095C905.325 537.964 903.624 540.518 900.652 542.509C897.681 544.501 892.318 545.851 888.57 544.347C889.041 548.001 889.47 551.815 886.996 555.195C884.522 558.575 878.178 561.333 871.945 560.481C868.637 559.607 868.897 556.826 870.462 554.944C872.026 553.062 874.426 551.14 873.646 549.104C872.872 547.085 869.331 545.911 866.683 544.503C864.035 543.096 862.269 540.428 865.081 539.129C863.186 536.693 856.374 536.99 853.378 539.033C850.381 541.076 850.082 543.952 849.755 546.612C849.428 549.271 848.716 552.184 845.244 553.964C839.327 556.997 827.968 555.423 824.044 559.374C822.798 560.629 822.724 562.143 822.011 563.527C818.828 569.706 805.085 571.307 793.852 571.811C793.824 572.092 793.79 572.375 793.755 572.66C792.133 571.402 790.303 570.437 788.35 569.809C784.199 568.537 778.945 566.894 779.419 564.215C779.67 562.792 781.575 561.682 782.955 560.488C785.615 558.188 786.332 554.948 783.475 552.726C780.618 550.505 773.736 550.208 771.215 552.559C769.918 553.768 769.996 555.285 769.327 556.651C767.238 560.912 758.788 562.783 751.609 564.438C744.43 566.094 736.398 569.174 737.073 573.582C737.797 578.315 748.522 582.521 744.618 586.562Z" fill="black"/>
<path id="Vector_10" opacity="0.1" d="M725.383 638.293C723.409 638.657 721.523 639.396 719.827 640.469C720.902 640.516 721.973 640.586 723.001 640.652C735.002 641.418 750.142 638.809 752.004 631.989C752.944 628.548 750.053 625.184 747.247 622.093C746.119 620.85 744.992 619.608 743.864 618.365C737.993 620.36 729.97 621.056 723.001 620.611C718.607 620.331 713.442 619.946 710.422 621.793C708.095 623.216 708.099 625.433 708.872 627.33C710.863 632.213 717.232 636.442 725.383 638.293Z" fill="black"/>
<path id="Vector_11" d="M969.788 607.107C1035.79 607.107 1089.3 571.793 1089.3 528.232C1089.3 484.671 1035.79 449.357 969.788 449.357C903.786 449.357 850.281 484.671 850.281 528.232C850.281 571.793 903.786 607.107 969.788 607.107Z" fill="#EA565C"/>
<path id="Vector_12" opacity="0.2" d="M929.156 522.655C929.156 522.655 874.979 528.232 890.913 505.127C906.848 482.023 926.766 474.056 936.326 480.429C945.887 486.803 949.87 504.331 948.277 504.331C946.683 504.331 923.579 490.787 915.612 501.144C907.644 511.501 929.156 522.655 929.156 522.655Z" fill="white"/>
<path id="Vector_13" opacity="0.2" d="M976.098 524.913C976.098 524.913 1020.84 555.973 993.696 563.123C966.556 570.274 946.254 563.344 943.152 552.28C940.05 541.217 948.445 525.323 949.654 526.361C950.863 527.399 959.57 552.726 972.362 550.057C985.154 547.389 976.098 524.913 976.098 524.913Z" fill="white"/>
<path id="Vector_14" opacity="0.2" d="M986.543 505.448C986.543 505.448 990.073 451.1 1010.2 470.662C1030.32 490.225 1034.86 511.192 1026.98 519.556C1019.1 527.921 1001.16 528.927 1001.42 527.356C1001.69 525.785 1018.89 505.261 1010.01 495.679C1001.13 486.097 986.543 505.448 986.543 505.448Z" fill="white"/>
<path id="Vector_15" d="M825.583 600.733C891.585 600.733 945.09 565.42 945.09 521.858C945.09 478.297 891.585 442.984 825.583 442.984C759.581 442.984 706.076 478.297 706.076 521.858C706.076 565.42 759.581 600.733 825.583 600.733Z" fill="#EA565C"/>
<path id="Vector_16" opacity="0.2" d="M784.95 516.281C784.95 516.281 730.774 521.858 746.708 498.754C762.642 475.649 782.56 467.682 792.121 474.056C801.681 480.429 805.665 497.957 804.072 497.957C802.478 497.957 779.373 484.413 771.406 494.77C763.439 505.127 784.95 516.281 784.95 516.281Z" fill="white"/>
<path id="Vector_17" opacity="0.2" d="M831.893 518.54C831.893 518.54 876.631 549.599 849.491 556.75C822.35 563.9 802.048 556.97 798.946 545.907C795.844 534.843 804.24 518.949 805.449 519.987C806.658 521.025 815.365 546.352 828.157 543.684C840.948 541.015 831.893 518.54 831.893 518.54Z" fill="white"/>
<path id="Vector_18" opacity="0.2" d="M842.337 499.075C842.337 499.075 845.868 444.726 865.994 464.289C886.119 483.851 890.655 504.818 882.777 513.183C874.899 521.547 856.953 522.554 857.218 520.983C857.484 519.411 874.69 498.887 865.805 489.305C856.921 479.723 842.337 499.075 842.337 499.075Z" fill="white"/>
<path id="Vector_19" opacity="0.1" d="M887.775 454.733C913.806 469.201 930.351 490.867 930.351 515.086C930.351 558.648 876.846 593.961 810.844 593.961C788.228 593.961 767.081 589.814 749.05 582.61C769.838 594.165 796.675 601.132 825.981 601.132C891.983 601.132 945.488 565.818 945.488 522.257C945.488 493.622 922.367 468.552 887.775 454.733Z" fill="black"/>
<path id="Vector_20" opacity="0.1" d="M1031.98 460.31C1058.01 474.778 1074.56 496.444 1074.56 520.663C1074.56 564.225 1021.05 599.538 955.049 599.538C932.433 599.538 911.286 595.391 893.255 588.187C914.044 599.742 940.88 606.708 970.187 606.708C1036.19 606.708 1089.69 571.395 1089.69 527.834C1089.69 499.199 1066.57 474.129 1031.98 460.31Z" fill="black"/>
<path id="Vector_21" d="M752.955 506.748C752.955 506.748 855.731 396.801 1107.49 442.214C1306.51 478.113 1143.08 539.901 1065.88 564.214C1043.48 571.265 1020.27 575.443 996.817 576.648C909.714 581.133 690.625 585.143 752.955 506.748Z" fill="#714B4F"/>
<path id="Vector_22" opacity="0.1" d="M1065.88 539.516C1043.48 546.567 1020.27 550.745 996.817 551.95C926.255 555.583 769.081 558.902 745.067 518.354C714.745 583.894 914.59 580.086 996.817 575.851C1020.27 574.647 1043.48 570.469 1065.88 563.418C1122.47 545.597 1225.38 507.642 1197.93 474.506C1179.45 500.51 1109.13 525.895 1065.88 539.516Z" fill="black"/>
<path id="Vector_23" opacity="0.1" d="M972.45 442.612L1000.34 497.586" stroke="black" stroke-width="2" stroke-miterlimit="10"/>
<path id="Vector_24" opacity="0.1" d="M886.405 462.53L910.306 508.74" stroke="black" stroke-width="2" stroke-miterlimit="10"/>
<path id="Vector_25" opacity="0.1" d="M1022.64 442.612L1060.09 497.586" stroke="black" stroke-width="2" stroke-miterlimit="10"/>
<path id="Vector_26" opacity="0.1" d="M886.405 513.52L1137.37 481.651" stroke="black" stroke-width="2" stroke-miterlimit="10"/>
<path id="Vector_27" opacity="0.1" d="M1127.81 452.97L1145.34 477.668" stroke="black" stroke-width="2" stroke-miterlimit="10"/>
<path id="Vector_28" opacity="0.1" d="M837.009 481.651L848.163 504.756" stroke="black" stroke-width="2" stroke-miterlimit="10"/>
<path id="Vector_29" d="M874.471 406.803C874.471 406.803 1103.65 405.766 1105.76 403.692C1107.86 401.619 1156.22 400.52 1165.68 413.999C1175.14 427.478 1178.29 433.699 1165.68 435.772C1153.06 437.846 737.802 650.397 737.802 650.397C737.802 650.397 714.674 652.471 726.238 629.661C737.802 606.85 874.471 406.803 874.471 406.803Z" fill="#F6C964"/>
<path id="Vector_30" d="M970.688 501.608C970.688 510.188 929.311 531.086 878.269 531.086C827.227 531.086 785.85 510.188 785.85 501.608C785.85 493.027 827.227 489.657 878.269 489.657C929.311 489.657 970.688 493.027 970.688 501.608Z" fill="#61AB43"/>
<path id="Vector_31" d="M878.269 516.745C929.311 516.745 970.688 509.79 970.688 501.209C970.688 492.629 929.311 485.673 878.269 485.673C827.227 485.673 785.85 492.629 785.85 501.209C785.85 509.79 827.227 516.745 878.269 516.745Z" fill="#61AB43"/>
<path id="Vector_32" d="M1082.23 487.267C1082.23 495.847 1040.85 516.745 989.809 516.745C938.767 516.745 897.39 495.847 897.39 487.267C897.39 478.686 938.767 475.316 989.809 475.316C1040.85 475.316 1082.23 478.686 1082.23 487.267Z" fill="#61AB43"/>
<path id="Vector_33" d="M989.809 502.404C1040.85 502.404 1082.23 495.449 1082.23 486.868C1082.23 478.288 1040.85 471.332 989.809 471.332C938.767 471.332 897.39 478.288 897.39 486.868C897.39 495.449 938.767 502.404 989.809 502.404Z" fill="#61AB43"/>
<path id="Vector_34" d="M1193.77 472.926C1193.77 481.506 1152.39 502.404 1101.35 502.404C1050.31 502.404 1008.93 481.506 1008.93 472.926C1008.93 464.346 1050.31 460.975 1101.35 460.975C1152.39 460.975 1193.77 464.346 1193.77 472.926Z" fill="#61AB43"/>
<path id="Vector_35" d="M1101.35 488.063C1152.39 488.063 1193.77 481.108 1193.77 472.528C1193.77 463.947 1152.39 456.992 1101.35 456.992C1050.31 456.992 1008.93 463.947 1008.93 472.528C1008.93 481.108 1050.31 488.063 1101.35 488.063Z" fill="#61AB43"/>
<path id="Vector_36" d="M760.988 477.34C760.988 477.34 722.977 471.152 742.425 440.213C761.872 409.275 768.413 374.593 776.899 366.845C786.387 358.182 982.212 206.301 1134.77 374.366C1150.93 392.383 1164.07 412.899 1173.67 435.116C1175.52 439.316 1177.55 443.086 1179.54 445.075C1185.73 451.263 1191.03 468.942 1179.54 477.782C1168.05 486.621 829.495 521.096 760.988 477.34Z" fill="#3F3D56"/>
<path id="Vector_37" d="M939.106 348.723C936.763 350.352 934.001 351.273 931.15 351.375C926.756 351.375 923.194 350.188 923.194 348.723C923.194 347.259 926.756 346.072 931.15 346.072C934.001 346.174 936.763 347.095 939.106 348.723V348.723Z" fill="#F2F2F2"/>
<path id="Vector_38" d="M875.461 331.928C873.118 333.557 870.356 334.478 867.505 334.58C863.111 334.58 859.549 333.393 859.549 331.928C859.549 330.464 863.111 329.276 867.505 329.276C870.356 329.379 873.118 330.299 875.461 331.928V331.928Z" fill="#F2F2F2"/>
<path id="Vector_39" d="M1048.35 356.403C1045.63 357.258 1042.72 357.312 1039.97 356.558C1035.78 355.246 1032.73 353.05 1033.17 351.652C1033.61 350.254 1037.36 350.184 1041.55 351.496C1044.24 352.445 1046.6 354.149 1048.35 356.403Z" fill="#F2F2F2"/>
<path id="Vector_40" d="M930.787 311.321C928.065 312.176 925.155 312.23 922.403 311.476C918.209 310.164 915.164 307.968 915.602 306.57C916.039 305.172 919.793 305.103 923.986 306.414C926.677 307.363 929.038 309.067 930.787 311.321V311.321Z" fill="#F2F2F2"/>
<path id="Vector_41" d="M1058.96 327.232C1056.24 328.087 1053.33 328.141 1050.58 327.387C1046.38 326.076 1043.34 323.879 1043.78 322.481C1044.21 321.083 1047.97 321.014 1052.16 322.326C1054.85 323.275 1057.21 324.978 1058.96 327.232V327.232Z" fill="#F2F2F2"/>
<path id="Vector_42" d="M1032.81 324.857C1030.46 326.485 1027.7 327.406 1024.85 327.508C1020.46 327.508 1016.89 326.321 1016.89 324.857C1016.89 323.392 1020.46 322.205 1024.85 322.205C1027.7 322.307 1030.46 323.228 1032.81 324.857V324.857Z" fill="#F2F2F2"/>
<path id="Vector_43" d="M956.785 308.945C954.442 310.574 951.681 311.495 948.829 311.597C944.435 311.597 940.874 310.41 940.874 308.945C940.874 307.481 944.435 306.293 948.829 306.293C951.681 306.396 954.442 307.316 956.785 308.945V308.945Z" fill="#F2F2F2"/>
<path id="Vector_44" d="M1015.13 308.945C1012.78 310.574 1010.02 311.495 1007.17 311.597C1002.78 311.597 999.215 310.41 999.215 308.945C999.215 307.481 1002.78 306.293 1007.17 306.293C1010.02 306.396 1012.78 307.316 1015.13 308.945V308.945Z" fill="#F2F2F2"/>
<path id="Vector_45" d="M993.027 343.42C990.685 345.049 987.923 345.969 985.072 346.072C980.678 346.072 977.116 344.884 977.116 343.42C977.116 341.955 980.678 340.768 985.072 340.768C987.923 340.87 990.685 341.791 993.027 343.42V343.42Z" fill="#F2F2F2"/>
<path id="Vector_46" d="M928.75 337.225C929.413 334.45 930.861 331.924 932.92 329.95C936.199 327.024 939.647 325.539 940.622 326.632C941.597 327.725 939.73 330.982 936.451 333.907C934.256 335.729 931.582 336.881 928.75 337.225Z" fill="#F2F2F2"/>
<path id="Vector_47" d="M888.971 327.501C889.635 324.726 891.083 322.201 893.142 320.226C896.421 317.301 899.869 315.815 900.844 316.908C901.819 318.001 899.952 321.258 896.673 324.183C894.477 326.005 891.804 327.157 888.971 327.501V327.501Z" fill="#F2F2F2"/>
<path id="Vector_48" d="M820.023 375.235C820.686 372.46 822.134 369.934 824.193 367.96C827.472 365.035 830.92 363.549 831.895 364.642C832.87 365.735 831.003 368.992 827.724 371.917C825.529 373.739 822.855 374.891 820.023 375.235Z" fill="#F2F2F2"/>
<path id="Vector_49" d="M972.948 322.197C973.611 319.422 975.059 316.897 977.118 314.922C980.397 311.997 983.845 310.512 984.82 311.604C985.795 312.697 983.928 315.954 980.649 318.88C978.454 320.702 975.78 321.853 972.948 322.197Z" fill="#F2F2F2"/>
<path id="Vector_50" d="M957.036 354.02C957.7 351.245 959.148 348.719 961.207 346.745C964.486 343.82 967.934 342.334 968.909 343.427C969.884 344.52 968.017 347.777 964.738 350.702C962.542 352.524 959.869 353.676 957.036 354.02Z" fill="#F2F2F2"/>
<path id="Vector_51" d="M491.594 623.978C491.594 682.938 528.582 730.648 574.293 730.648Z" fill="#46455B"/>
<path id="Vector_52" d="M574.293 730.648C574.293 671.025 615.57 622.779 666.581 622.779Z" fill="#B4722C"/>
<path id="Vector_53" d="M521.557 629.323C521.557 685.329 545.144 730.648 574.293 730.648Z" fill="#B4722C"/>
<path id="Vector_54" d="M574.293 730.648C574.293 654.464 622.003 592.816 680.963 592.816Z" fill="#46455B"/>
<path id="Vector_55" d="M556.895 731.4C556.895 731.4 568.623 731.039 572.158 728.522C575.692 726.005 590.199 723 591.076 727.036C591.952 731.073 608.701 747.113 595.46 747.219C582.219 747.326 564.694 745.157 561.166 743.008C557.638 740.859 556.895 731.4 556.895 731.4Z" fill="#A8A8A8"/>
<path id="Vector_56" opacity="0.2" d="M595.696 745.814C582.455 745.921 564.93 743.752 561.402 741.603C558.716 739.966 557.645 734.094 557.287 731.385C557.039 731.396 556.895 731.4 556.895 731.4C556.895 731.4 557.638 740.859 561.166 743.008C564.694 745.157 582.219 747.326 595.46 747.219C599.282 747.188 600.602 745.829 600.53 743.815C599.999 745.031 598.541 745.791 595.696 745.814Z" fill="black"/>
</g>
</g>
</g>
</g>
<defs>
<clipPath id="clip0">
<rect width="1440" height="1024" fill="white"/>
</clipPath>
<clipPath id="clip1">
<rect x="395" y="217" width="1082" height="590.893" fill="white"/>
</clipPath>
</defs>
</svg>
