<svg width="1150" height="72" viewBox="0 0 1150 72" fill="none" xmlns="http://www.w3.org/2000/svg">
<path id="BYTHEALPHABET" d="M8.00879 7.504V64.772H44.0098C48.4578 64.772 51.8401 63.66 54.1568 61.436C56.5661 59.1193 57.7708 56.015 57.7708 52.123C57.7708 47.953 56.4735 44.5243 53.8788 41.837C51.2841 39.1497 48.2261 37.806 44.7048 37.806H19.6848V30.856H43.8708C47.2995 30.856 50.0795 29.6513 52.2108 27.242C54.4348 24.8327 55.5468 21.9137 55.5468 18.485C55.5468 15.149 54.4811 12.508 52.3498 10.562C50.2185 8.52333 47.2995 7.504 43.5928 7.504H8.00879ZM44.9828 0.275995C49.9868 0.275995 54.2495 2.083 57.7708 5.697C61.3848 9.21833 63.1918 13.5273 63.1918 18.624C63.1918 24.8327 60.6898 29.9293 55.6858 33.914C58.3731 35.582 60.6435 38.0377 62.4968 41.281C64.4428 44.4317 65.4158 47.9993 65.4158 51.984C65.4158 57.7293 63.5161 62.5017 59.7168 66.301C55.9175 70.1003 51.1915 72 45.5388 72H0.363787V0.275995H44.9828ZM124.806 42.532V72H117.161V40.586L147.324 0.275995H156.776L124.806 42.532ZM94.7817 0.275995L114.103 26.13L109.516 32.246L85.3297 0.275995H94.7817ZM233.181 0.275995V7.504H164.932V0.275995H233.181ZM202.879 18.763V72H195.234V18.763H202.879ZM261.708 0.275995V72H254.063V0.275995H261.708ZM317.447 31.69V0.275995H325.092V72H317.447V38.779H273.384V31.69H317.447ZM369.083 64.772H422.181V72H361.438V0.275995H421.625V7.504H369.083V64.772ZM413.424 31.829V38.779H380.759V31.829H413.424ZM509.14 72L500.383 54.208H467.44L470.776 47.258H497.186L477.726 7.226L446.312 72H437.972L473 0.275995H482.452L517.48 72H509.14ZM547.173 0.275995V64.772H597.492V72H539.528V0.275995H547.173ZM629.844 7.504V72H622.199V0.275995H665.984C672.007 0.275995 676.965 2.26833 680.857 6.253C684.749 10.145 686.695 15.149 686.695 21.265C686.695 27.4737 684.702 32.663 680.718 36.833C676.733 40.9103 671.822 42.949 665.984 42.949H641.52V35.86H664.872C669.134 35.86 672.563 34.5163 675.158 31.829C677.845 29.1417 679.189 25.574 679.189 21.126C679.189 12.0447 674.416 7.504 664.872 7.504H629.844ZM722.824 0.275995V72H715.179V0.275995H722.824ZM778.563 31.69V0.275995H786.208V72H778.563V38.779H734.5V31.69H778.563ZM879.444 72L870.687 54.208H837.744L841.08 47.258H867.49L848.03 7.226L816.616 72H808.276L843.304 0.275995H852.756L887.784 72H879.444ZM917.617 7.504V64.772H953.618C958.066 64.772 961.449 63.66 963.765 61.436C966.175 59.1193 967.379 56.015 967.379 52.123C967.379 47.953 966.082 44.5243 963.487 41.837C960.893 39.1497 957.835 37.806 954.313 37.806H929.293V30.856H953.479C956.908 30.856 959.688 29.6513 961.819 27.242C964.043 24.8327 965.155 21.9137 965.155 18.485C965.155 15.149 964.09 12.508 961.958 10.562C959.827 8.52333 956.908 7.504 953.201 7.504H917.617ZM954.591 0.275995C959.595 0.275995 963.858 2.083 967.379 5.697C970.993 9.21833 972.8 13.5273 972.8 18.624C972.8 24.8327 970.298 29.9293 965.294 33.914C967.982 35.582 970.252 38.0377 972.105 41.281C974.051 44.4317 975.024 47.9993 975.024 51.984C975.024 57.7293 973.125 62.5017 969.325 66.301C965.526 70.1003 960.8 72 955.147 72H909.972V0.275995H954.591ZM1014.54 64.772H1067.64V72H1006.89V0.275995H1067.08V7.504H1014.54V64.772ZM1058.88 31.829V38.779H1026.21V31.829H1058.88ZM1149.03 0.275995V7.504H1080.78V0.275995H1149.03ZM1118.73 18.763V72H1111.09V18.763H1118.73Z" fill="#6A6A6B"/>
</svg>
